<svg aria-hidden="true" style="position: absolute; width: 0; height: 0; overflow: hidden;" version="1.1" xmlns="http://www.w3.org/2000/svg" xmlns:xlink="http://www.w3.org/1999/xlink">
<defs>
<symbol id="icon-javascript" viewBox="0 0 28 32">
<path fill="#d4b830" style="fill: var(--color1, #d4b830)" d="M2.612 28.763l-2.613-28.762 28.147 0.011-2.591 28.729-11.505 3.249-11.439-3.227zM23.436 27.193l2.185-24.634h-11.527l0.088 27.17 9.254-2.536zM13.018 6.171h-2.799l-0.033 14.743-5.434-1.482 0.011 3.37 8.255 2.228v-18.86z"></path>
<path fill="#ebebeb" style="fill: var(--color2, #ebebeb)" opacity="0.9086976" d="M4.763 22.802l-0.011-3.37s3.469 0.977 5.434 1.482l0.033-14.732h2.799v18.849l-8.255-2.228z"></path>
<path fill="#fdd83c" style="fill: var(--color3, #fdd83c)" d="M14.094 2.548h11.527l-2.185 24.634-9.342 2.536v-27.17zM22.843 23.055l0.757-9.21-5.599 0.626v-4.918l5.972-0.022 0.241-3.359-9.013 0.044 0.121 12.229 5.445-0.933-0.077 2.722-5.489 1.46 0.055 3.337 7.586-1.976z"></path>
</symbol>
<symbol id="icon-rest-api" viewBox="0 0 32 32">
<path d="M26.742 4.842v0 0c-0.18-0.234-0.515-0.278-0.749-0.099l-0.656 0.497c-0.286-0.239-0.604-0.442-0.95-0.601l0.122-0.89c0.042-0.291-0.164-0.562-0.455-0.601l-1.106-0.151c-0.291-0.039-0.562 0.167-0.601 0.458l-0.112 0.814c-0.377 0.034-0.747 0.117-1.093 0.247l-0.544-0.715c-0.177-0.234-0.513-0.278-0.747-0.101l-0.887 0.674c-0.234 0.177-0.278 0.513-0.101 0.744l0.497 0.656c-0.237 0.284-0.44 0.604-0.598 0.947l-0.89-0.122c-0.291-0.039-0.559 0.164-0.601 0.455l-0.151 1.106c-0.042 0.291 0.164 0.562 0.455 0.601l0.814 0.112c0.034 0.377 0.117 0.744 0.247 1.093l-0.715 0.544c-0.234 0.177-0.278 0.513-0.101 0.747l0.674 0.887c0.177 0.234 0.513 0.278 0.747 0.101l0.656-0.497c0.284 0.237 0.604 0.44 0.947 0.598l-0.122 0.89c-0.039 0.291 0.164 0.562 0.455 0.601l1.106 0.151c0.291 0.039 0.562-0.164 0.601-0.455l0.112-0.814c0.38-0.034 0.747-0.117 1.095-0.247l0.544 0.715c0.177 0.232 0.513 0.278 0.747 0.101l0.887-0.674c0.234-0.177 0.281-0.513 0.104-0.747l-0.5-0.656c0.239-0.284 0.442-0.601 0.601-0.947l0.89 0.122c0.291 0.042 0.562-0.164 0.601-0.455l0.151-1.106c0.039-0.291-0.164-0.562-0.455-0.601l-0.814-0.112c-0.034-0.377-0.117-0.747-0.247-1.093l0.715-0.544c0.234-0.177 0.278-0.513 0.101-0.747l-0.674-0.887zM7.719 20.454v-4.293h2.211c0.411 0 0.723 0.034 0.939 0.107 0.216 0.070 0.393 0.2 0.523 0.39 0.133 0.193 0.2 0.424 0.2 0.697 0 0.237-0.052 0.445-0.153 0.617-0.101 0.174-0.242 0.315-0.419 0.421-0.112 0.068-0.268 0.125-0.466 0.169 0.159 0.055 0.273 0.104 0.343 0.159 0.049 0.036 0.12 0.112 0.211 0.226s0.153 0.206 0.185 0.268l0.645 1.241h-1.499l-0.708-1.309c-0.091-0.169-0.169-0.281-0.239-0.33-0.096-0.065-0.206-0.099-0.325-0.099h-0.117v1.738h-1.332v-0.003zM12.397 27.928h-2.477l-0.356 1.166h-2.232l2.661-7.074h2.393l2.651 7.074h-2.289l-0.351-1.166zM11.934 26.396l-0.773-2.544-0.775 2.544h1.548zM15.553 22.020h3.637c0.794 0 1.387 0.187 1.779 0.565s0.591 0.916 0.591 1.61c0 0.715-0.216 1.275-0.645 1.678s-1.087 0.604-1.969 0.604h-1.199v2.617h-2.193v-7.074zM17.746 25.043h0.539c0.424 0 0.723-0.073 0.895-0.221 0.172-0.146 0.258-0.336 0.258-0.562 0-0.221-0.075-0.411-0.224-0.565s-0.429-0.232-0.84-0.232h-0.627v1.579zM22.444 22.020h2.193v7.074h-2.193v-7.074zM9.051 17.904h0.559c0.060 0 0.177-0.021 0.351-0.060 0.088-0.018 0.161-0.062 0.216-0.135 0.057-0.073 0.083-0.156 0.083-0.25 0-0.138-0.044-0.247-0.133-0.32-0.088-0.075-0.252-0.112-0.494-0.112h-0.583v0.877zM12.194 16.161h3.551v0.916h-2.219v0.684h2.058v0.874h-2.058v0.846h2.284v0.97h-3.616v-4.29zM16.125 19.034l1.259-0.078c0.026 0.206 0.083 0.359 0.166 0.466 0.138 0.172 0.333 0.26 0.585 0.26 0.187 0 0.336-0.044 0.437-0.133s0.154-0.193 0.154-0.31c0-0.112-0.049-0.211-0.146-0.299s-0.323-0.169-0.679-0.25c-0.58-0.13-0.994-0.304-1.244-0.52s-0.375-0.492-0.375-0.827c0-0.221 0.065-0.429 0.193-0.624s0.32-0.351 0.578-0.463c0.258-0.112 0.609-0.166 1.056-0.166 0.549 0 0.965 0.101 1.254 0.307 0.286 0.206 0.458 0.528 0.513 0.976l-1.246 0.075c-0.034-0.195-0.104-0.338-0.208-0.424-0.107-0.088-0.255-0.133-0.44-0.133-0.154 0-0.271 0.034-0.349 0.099s-0.117 0.146-0.117 0.239c0 0.068 0.034 0.127 0.096 0.185 0.062 0.055 0.208 0.109 0.442 0.159 0.58 0.125 0.996 0.252 1.246 0.38s0.434 0.286 0.546 0.476c0.114 0.187 0.172 0.401 0.172 0.635 0 0.276-0.075 0.528-0.229 0.76-0.151 0.232-0.364 0.408-0.637 0.528s-0.617 0.18-1.033 0.18c-0.728 0-1.236-0.14-1.517-0.421-0.281-0.286-0.44-0.643-0.479-1.074v0zM20.212 16.161h4.035v1.061h-1.353v3.231h-1.327v-3.231h-1.355v-1.061zM15.748 5.973c-0.476-0.036-0.957-0.031-1.434 0.016-1.465 0.141-2.888 0.674-4.064 1.587-1.361 1.054-2.393 2.63-2.792 4.719l-0.125 0.653-0.65 0.114c-0.637 0.112-1.207 0.265-1.707 0.46-0.484 0.187-0.916 0.419-1.293 0.692-0.302 0.219-0.562 0.463-0.783 0.728-0.684 0.819-1.002 1.847-0.994 2.888 0.008 1.056 0.351 2.123 0.986 3 0.237 0.325 0.51 0.624 0.822 0.885 0.317 0.263 0.674 0.481 1.074 0.645 0.226 0.094 0.468 0.172 0.721 0.234v1.949c-0.52-0.094-0.999-0.234-1.447-0.419-0.591-0.245-1.114-0.559-1.574-0.944-0.437-0.364-0.82-0.778-1.145-1.228-0.866-1.197-1.335-2.659-1.345-4.116-0.010-1.473 0.447-2.937 1.436-4.124 0.32-0.385 0.697-0.739 1.129-1.051 0.502-0.364 1.077-0.671 1.727-0.924 0.447-0.174 0.926-0.32 1.431-0.437 0.572-2.274 1.793-4.025 3.361-5.24 1.467-1.137 3.234-1.8 5.052-1.975 0.955-0.091 1.923-0.049 2.87 0.127-0.021 0.086-0.039 0.172-0.049 0.26l-0.003 0.016c-0.018 0.148-0.026 0.297-0.018 0.447-0.2 0.078-0.388 0.185-0.557 0.315l-0.008 0.005c-0.252 0.19-0.466 0.434-0.624 0.715v0zM29.513 10.968c0.146 0.133 0.286 0.271 0.424 0.419 0.278 0.299 0.541 0.637 0.788 1.015 0.833 1.28 1.259 2.989 1.241 4.662-0.018 1.642-0.46 3.275-1.366 4.477-0.591 0.783-1.348 1.423-2.256 1.93-0.622 0.349-1.322 0.637-2.084 0.872v-2.016c0.411-0.154 0.794-0.325 1.145-0.52 0.684-0.382 1.244-0.848 1.662-1.407 0.65-0.866 0.97-2.092 0.983-3.348 0.016-1.319-0.307-2.643-0.934-3.606-0.18-0.278-0.377-0.528-0.585-0.752-0.081-0.086-0.161-0.166-0.245-0.245 0.013-0.13 0.018-0.263 0.010-0.395 0.2-0.078 0.388-0.185 0.557-0.315l0.008-0.005c0.268-0.206 0.492-0.466 0.65-0.765v0zM22.915 6.322c1.199 0.164 2.037 1.27 1.873 2.469s-1.27 2.040-2.469 1.876c-1.199-0.164-2.040-1.27-1.873-2.469s1.27-2.040 2.469-1.876v0 0z"></path>
</symbol>
<symbol id="icon-saas" viewBox="0 0 32 32">
<path d="M31.986 20.569c-0.104-0.85-0.577-1.509-1.3-2.026 0.179 0.128 0.33 0.235-0.003-0.003-0.449-0.321-0.211-0.151-0.003-0.002-1.781-1.269-4.105-0.987-6.046-0.282-0.778-1.268-0.812-2.236-0.363-3.621 0.058-0.175 0.018-0.272-0.164-0.35-0.443-0.189-1.081-0.089-1.526 0.029-0.154 0.040-0.266 0.119-0.3 0.274-0.322 1.515-1.313 2.903-2.177 4.18-0.608-1.166-0.56-2.068-0.151-3.282 0.050-0.148 0.027-0.226-0.121-0.305-0.454-0.235-1.15-0.12-1.613 0.017-0.532 0.155-1.331 2.787-1.586 3.309-0.533 1.090-1.006 2.792-1.912 3.656-0.769-0.988 1.408-3.22 0.68-4.116-0.246-0.303-0.691-0.295-0.974-0.038 0.068-0.476 0.103-0.788-0.020-1.191-0.13-0.424-0.46-0.668-0.943-0.656-1.125 0.033-2.115 0.863-2.79 1.65-0.642 0.757-2.336 1.227-3.247 1.683-1.564-1.363-4.951-2.809-5.040-5.13-0.095-2.615 3.020-4.39 5.1-5.452 2.705-1.381 6.873-3.101 9.946-1.59 0.816 0.401 1.144 1.261 0.919 2.084-0.585 2.148-2.95 3.581-5.006 4.238-1.012 0.323-2.123 0.564-3.194 0.502-1.435-0.084-2.552-0.951-2.705-1.005-0.128-0.024-0.118 0.141-0.084 0.229 1.488 3.902 9.026 1.043 10.997-0.961 0.949-0.964 1.526-1.898 1.772-3.368 0.288-1.724-0.977-2.803-1.938-3.247-4.87-2.255-11.602 0.698-15.285 3.708-1.598 1.306-3.597 3.382-2.68 5.559 0.996 2.363 4.046 3.574 6.031 5.020-1.607 0.798-3.616 1.624-4.657 3.121-0.595 0.858-0.806 1.772-0.363 2.748 0.786 1.723 3.643 0.976 4.848 0.217 1.104-0.696 1.848-1.629 2.169-2.827 0.278-1.038 0.221-2.117-0.241-3.095l1.787-0.904c-0.481 1.442-0.694 3.25 0.305 4.553 0.4 0.521 1.439 0.542 1.864 0.019 0.551-0.684 0.916-1.541 1.281-2.325-0.043 0.586-0.116 1.25 0.086 1.76 0.232 0.586 0.758 0.706 1.3 0.334 1.658-1.138 2.712-4.291 3.529-6.129 0.222 0.802 0.467 1.534 0.872 2.273 0.1 0.181 0.088 0.298-0.050 0.45-0.605 0.667-2.052 1.78-2.192 2.681-0.033 0.211 0.107 0.412 0.355 0.461 0.973 0.194 2.052-0.158 2.843-0.692 0.824-0.558 1.090-1.318 0.89-2.22-0.286-1.298 0.687-2.749 1.613-3.814 0.17 0.807 0.426 1.583 0.884 2.288-0.817 0.718-2.036 1.735-1.861 2.934 0.062 0.429 0.446 0.706 0.907 0.608 0.986-0.208 1.838-0.632 2.461-1.384 0.564-0.678 0.362-1.419 0.116-2.165 1.492-0.426 3.001-0.511 4.489-0.002 0.718 0.244 1.297 0.656 1.64 1.301 0.42 0.79 0.184 1.518-0.628 2.038-0.205 0.131-0.348 0.24-0.278 0.296s0.306 0.132 0.83-0.197c0.524-0.329 0.844-0.774 0.926-1.358 0.008-0.071 0.012-0.152 0.012-0.235 0-0.088-0.005-0.175-0.014-0.26l0.001 0.011zM7.059 22.148c-0.085 1.042-0.602 1.887-1.448 2.57-0.476 0.385-1.069 0.698-1.657 0.756s-1.047-0.091-1.086-0.702c-0.11-1.718 2.558-3.401 4.039-3.908 0.126 0.429 0.188 0.854 0.152 1.287l0.001-0.002zM13.503 17.62c-0.244 1.394-0.927 3.897-2.020 4.896-0.147 0.134-0.288 0.126-0.363-0.048-0.647-1.504 0.229-4.604 2.068-5.083 0.216-0.056 0.35 0.036 0.315 0.235zM17.897 22.73c0.526-0.56 1.052-1.12 1.579-1.683 0.065 0.626-1.098 1.873-1.579 1.683zM22.942 21.624c-0.147 0.080-0.476 0.157-0.489 0.052-0.093-0.755 0.738-1.555 1.254-1.929 0.278 0.709-0.051 1.49-0.765 1.877z"></path>
</symbol>
<symbol id="icon-html" viewBox="0 0 32 32">
<path fill="#e44d26" style="fill: var(--color4, #e44d26)" d="M6 28l-2-25h24l-2 25-10 3-10-3z"></path>
<path fill="#f16529" style="fill: var(--color5, #f16529)" d="M26 5h-10v24.5l8-2.5 2-22z"></path>
<path fill="#fff" style="fill: var(--color6, #fff)" d="M9.5 17.5l-1-9.5h15.5l-0.5 3h-12l0.5 3.5h11l-1 9.5-6 2-6-2-0.5-5h3l0.5 2.5 3 1 3-1 0.5-4h-10z"></path>
</symbol>
<symbol id="icon-css" viewBox="0 0 32 32">
<path fill="#1572b6" style="fill: var(--color7, #1572b6)" d="M5.902 27.201l-2.246-25.201h24.688l-2.249 25.197-10.11 2.803-10.083-2.799z"></path>
<path fill="#33a9dc" style="fill: var(--color8, #33a9dc)" d="M16 27.858l8.17-2.265 1.922-21.532h-10.092v23.797z"></path>
<path fill="#fff" style="fill: var(--color6, #fff)" d="M16 13.191h4.090l0.282-3.165h-4.372v-3.091h7.75l-0.074 0.829-0.759 8.518h-6.917v-3.091z"></path>
<path fill="#ebebeb" style="fill: var(--color2, #ebebeb)" d="M16.019 21.218l-0.014 0.004-3.442-0.93-0.22-2.465h-3.103l0.433 4.853 6.331 1.758 0.015-0.004v-3.216z"></path>
<path fill="#fff" style="fill: var(--color6, #fff)" d="M19.827 16.151l-0.372 4.139-3.447 0.93v3.216l6.336-1.756 0.047-0.522 0.537-6.007h-3.101z"></path>
<path fill="#ebebeb" style="fill: var(--color2, #ebebeb)" d="M16.011 6.935v3.091h-7.466l-0.062-0.695-0.141-1.567-0.074-0.829h7.743z"></path>
<path fill="#ebebeb" style="fill: var(--color2, #ebebeb)" d="M16 13.191v3.091h-3.399l-0.062-0.695-0.14-1.567-0.074-0.829h3.675z"></path>
</symbol>
</defs>
</svg>
